<svg xmlns="http://www.w3.org/2000/svg" width="338.667" height="338.667" preserveAspectRatio="xMidYMid meet" version="1.0" viewBox="0 0 254 254"><metadata>Created by potrace 1.14, written by Peter Selinger 2001-2017</metadata><g fill="#000" stroke="none"><path d="M1258 2505 c-2 -2 -28 -6 -58 -9 -150 -18 -710 -150 -779 -184 -19 -9 -44 -30 -55 -45 -21 -28 -21 -38 -21 -645 0 -699 -1 -685 81 -859 112 -235 360 -474 655 -630 171 -91 201 -93 337 -25 352 176 629 446 732 713 28 74 34 96 49 189 4 25 6 306 6 625 -1 438 -4 589 -14 617 -9 28 -22 42 -54 57 -34 17 -436 123 -552 146 -166 33 -320 56 -327 50z" transform="translate(0.000000,254.000000) scale(0.100000,-0.100000)"/></g></svg>